<?xml version="1.0" standalone="no"?>
<!DOCTYPE svg PUBLIC "-//W3C//DTD SVG 20010904//EN"
 "http://www.w3.org/TR/2001/REC-SVG-20010904/DTD/svg10.dtd">
<svg version="1.0" xmlns="http://www.w3.org/2000/svg"
 width="1000.000000pt" height="1000.000000pt" viewBox="0 0 1000.000000 1000.000000"
 preserveAspectRatio="xMidYMid meet">
<metadata>
Created by potrace 1.11, written by Peter Selinger 2001-2013
</metadata>
<g transform="translate(0.000000,1000.000000) scale(0.100000,-0.100000)"
fill="#000000" stroke="none">
<path d="M5179 9816 c-2 -2 -56 -7 -120 -10 -64 -4 -127 -9 -140 -11 -13 -2
-51 -6 -84 -9 -33 -4 -71 -8 -85 -10 -14 -3 -43 -7 -65 -10 -78 -10 -193 -29
-310 -52 -145 -28 -138 -27 -245 -53 -47 -12 -94 -24 -104 -26 -78 -18 -346
-102 -481 -151 -283 -103 -646 -276 -901 -429 -196 -118 -483 -318 -604 -421
-219 -187 -235 -202 -374 -340 -223 -222 -418 -457 -595 -718 -60 -89 -118
-177 -129 -196 -234 -409 -354 -668 -475 -1030 -40 -117 -102 -328 -112 -379
-2 -9 -11 -47 -20 -86 -9 -38 -18 -79 -21 -90 -2 -11 -6 -31 -9 -45 -15 -70
-42 -226 -51 -295 -3 -27 -8 -58 -9 -67 -2 -9 -7 -48 -10 -85 -4 -37 -9 -77
-11 -87 -19 -101 -26 -701 -11 -886 10 -117 16 -175 22 -220 3 -19 8 -53 10
-75 3 -22 10 -65 15 -95 5 -30 12 -73 15 -95 4 -22 8 -47 10 -55 2 -8 7 -31
10 -50 9 -52 55 -251 65 -280 8 -21 31 -102 35 -120 27 -129 180 -514 292
-735 294 -583 737 -1098 1273 -1480 30 -22 56 -43 58 -47 2 -5 8 -8 12 -8 5 0
37 -20 72 -44 188 -130 490 -293 783 -421 258 -113 740 -261 1010 -309 153
-28 147 -27 295 -50 52 -8 129 -17 170 -21 41 -3 82 -8 90 -10 100 -27 831
-26 1075 0 22 3 65 7 95 10 30 4 66 8 80 10 14 2 61 9 105 15 77 11 152 24
315 56 41 8 156 35 254 60 343 88 620 188 986 356 84 39 423 209 475 238 165
93 206 117 253 146 29 19 54 34 56 34 3 0 58 36 123 81 275 189 435 343 515
499 42 83 50 185 20 253 -30 68 -77 122 -151 172 -118 80 -242 91 -446 39
-111 -29 -384 -141 -499 -205 -10 -6 -53 -29 -95 -52 -42 -22 -107 -57 -144
-79 -38 -21 -71 -38 -73 -38 -2 0 -23 -12 -47 -27 -40 -26 -252 -133 -367
-186 -369 -171 -889 -317 -1290 -362 -25 -3 -66 -8 -92 -11 -278 -33 -784 -37
-1003 -9 -16 2 -64 7 -105 10 -41 4 -77 9 -80 10 -3 2 -33 6 -65 10 -33 3 -67
8 -75 10 -8 3 -28 7 -45 10 -32 5 -33 5 -160 31 -197 39 -542 144 -690 209
-16 7 -64 27 -105 45 -119 51 -276 133 -391 202 -102 62 -305 200 -345 236
-11 9 -44 37 -74 61 -52 43 -94 80 -185 169 -215 207 -410 471 -563 762 -133
252 -277 672 -327 955 -5 32 -23 144 -30 185 -2 14 -6 43 -9 65 -15 95 -29
334 -29 490 0 103 12 376 18 385 1 3 6 37 9 75 4 39 9 77 11 85 2 8 6 37 10
64 3 27 13 85 21 130 9 44 18 92 20 105 13 69 88 341 122 446 172 521 472
1052 819 1445 12 14 31 36 43 50 68 79 269 275 375 365 39 33 72 63 75 66 10
12 237 177 310 226 272 180 629 349 955 450 160 49 381 106 495 126 131 24
209 37 260 42 14 1 48 5 75 9 28 3 79 8 115 11 36 3 90 8 120 10 58 6 461 6
520 1 19 -2 78 -7 130 -11 52 -4 104 -9 114 -11 11 -2 42 -6 70 -9 28 -3 58
-8 66 -10 8 -2 35 -7 60 -10 197 -27 492 -110 745 -208 773 -300 1376 -898
1625 -1612 107 -307 153 -590 154 -940 0 -189 -7 -293 -29 -446 -21 -140 -22
-144 -39 -227 -148 -691 -524 -1314 -979 -1621 -256 -172 -540 -245 -705 -183
-76 29 -118 67 -153 138 -27 54 -32 77 -35 151 -3 83 2 118 52 373 26 133 97
444 150 660 36 146 67 272 69 280 2 8 56 224 120 480 64 256 118 472 120 480
2 8 20 74 40 145 80 285 137 503 149 570 3 17 10 54 16 84 28 149 22 266 -18
346 -85 170 -299 286 -524 286 -136 -1 -240 -41 -313 -122 -47 -52 -69 -106
-90 -213 -23 -127 -52 -193 -106 -248 -52 -52 -88 -64 -167 -55 -87 9 -230 84
-342 179 -103 87 -316 203 -500 271 -176 66 -261 80 -470 80 -152 1 -241 -7
-344 -29 -39 -9 -80 -17 -92 -20 -12 -2 -63 -17 -115 -33 -319 -99 -611 -278
-888 -545 -366 -352 -646 -809 -810 -1327 -33 -105 -96 -352 -105 -413 -4 -21
-8 -41 -10 -45 -2 -3 -7 -26 -10 -51 -3 -25 -8 -56 -11 -70 -3 -14 -7 -49 -11
-78 -3 -29 -7 -62 -9 -72 -19 -96 -26 -510 -13 -660 55 -596 278 -1041 666
-1332 81 -61 276 -163 377 -197 85 -29 192 -54 285 -66 30 -4 64 -9 75 -11 28
-6 310 -5 365 1 25 3 59 7 75 10 17 2 53 7 80 11 118 15 392 94 545 159 91 38
302 144 321 161 8 8 19 14 23 14 12 0 188 120 259 177 38 30 69 53 71 51 73
-114 241 -283 359 -361 162 -108 356 -186 522 -213 22 -3 42 -7 46 -9 16 -10
173 -20 309 -19 138 0 223 6 301 19 123 20 167 29 254 51 378 94 758 288 1045
533 403 344 722 757 940 1215 93 197 93 197 145 336 40 108 117 354 130 415 2
11 17 83 33 160 16 77 33 165 37 195 4 30 9 64 11 75 4 21 7 54 21 195 4 47 8
202 8 345 -1 263 -5 335 -30 518 -3 23 -8 60 -11 82 -30 221 -143 620 -236
835 -248 573 -575 1008 -1084 1440 -16 14 -75 59 -131 102 -565 426 -1262 719
-2008 843 -74 12 -222 31 -314 40 -35 4 -82 9 -105 12 -51 5 -681 14 -687 9z
m126 -3471 c104 -30 182 -70 249 -125 47 -39 136 -140 136 -154 0 -5 8 -20 19
-34 23 -34 68 -147 76 -192 3 -19 11 -55 16 -80 11 -46 14 -276 5 -308 -3 -9
-7 -39 -10 -67 -3 -27 -8 -61 -11 -75 -2 -14 -12 -61 -21 -105 -13 -67 -67
-287 -104 -425 -5 -19 -21 -84 -36 -145 -138 -577 -416 -1006 -759 -1174 -147
-72 -267 -99 -430 -95 -352 7 -567 202 -646 584 -64 311 -28 745 101 1199 111
394 320 780 521 966 151 140 332 232 493 251 28 4 53 8 55 10 2 1 60 1 130 -1
99 -3 145 -9 216 -30z"/>
</g>
</svg>
