<?xml version="1.0" standalone="no"?>
<!DOCTYPE svg PUBLIC "-//W3C//DTD SVG 20010904//EN"
 "http://www.w3.org/TR/2001/REC-SVG-20010904/DTD/svg10.dtd">
<svg version="1.0" xmlns="http://www.w3.org/2000/svg"
 width="128.000000pt" height="128.000000pt" viewBox="0 0 128.000000 128.000000"
 preserveAspectRatio="xMidYMid meet">
<metadata>
Created by potrace 1.11, written by Peter Selinger 2001-2013
</metadata>
<g transform="translate(0.000000,128.000000) scale(0.100000,-0.100000)"
fill="#000000" stroke="none">
<path d="M240 1181 c-59 -24 -124 -97 -139 -155 -16 -63 -15 -725 1 -778 6
-22 31 -62 55 -88 71 -79 77 -80 507 -77 363 2 372 2 416 25 49 25 105 91 120
143 6 19 10 193 10 390 0 398 -3 419 -67 482 -72 73 -65 72 -483 74 -344 2
-379 1 -420 -16z"/>
</g>
</svg>
